# xmcd
#
# Track frame offsets: 
#        150
#        25996
#        51189
#        71886
#        101764
#        121497
#        136934
#        157630
#        178808
#        200031
#        240086
#
# Disc length: 3301 seconds
#
# Revision: 3
# Processed by: cddbd v1.5.2PL0 Copyright (c) Steve Scherf et al.
# Submitted via: ExactAudioCopy v0.99pb5
#
DISCID=950ce30b
DTITLE=Gianluigi Trovesi with Enrico Rava - Jazz Italiano Live 2007
DYEAR=2007
DGENRE=Jazz
TTITLE0=Canzoncina
TTITLE1=Rina e Vigilio
TTITLE2=Campanello cammellato
TTITLE3=Django
TTITLE4=Disparietto
TTITLE5=Ricercar vaghezza
TTITLE6=Gargantella
TTITLE7=Espressamente
TTITLE8=G Form
TTITLE9=Noparietto
TTITLE10=Rina e Vigilio DUO
EXTD=YEAR: 2007
EXTT0=
EXTT1=
EXTT2=
EXTT3=
EXTT4=
EXTT5=
EXTT6=
EXTT7=
EXTT8=
EXTT9=
EXTT10=
PLAYORDER=
